<svg width="67" height="17" viewBox="0 0 67 17" fill="none" xmlns="http://www.w3.org/2000/svg">
<path fill-rule="evenodd" clip-rule="evenodd" d="M10.4969 2.09929C11.0766 2.09929 11.5465 1.62935 11.5465 1.04965C11.5465 0.469942 11.0766 0 10.4969 0C9.91715 0 9.44721 0.469942 9.44721 1.04965C9.44721 1.62935 9.91715 2.09929 10.4969 2.09929ZM16.4393 5.90981C15.0986 4.80406 13.415 4.19902 11.6771 4.19837H11.5459V5.24801H11.6771C13.0458 5.24801 14.3825 5.68729 15.48 6.49289C15.1302 7.36083 14.5941 8.14138 13.9096 8.77944C13.2251 9.4175 12.4089 9.8975 11.5186 10.1855C11.5368 9.97386 11.5459 9.76044 11.5459 9.54526C11.5459 5.4401 8.20539 2.09908 4.0997 2.09908C3.61214 2.09908 3.12563 2.14631 2.65276 2.23973L2.30796 2.30796L2.23973 2.65276C2.14613 3.12939 2.09903 3.61397 2.09908 4.0997C2.09908 6.26407 3.03326 8.20959 4.51221 9.5715C4.30717 10.2554 4.20148 10.9652 4.19837 11.6792L4.19889 11.6797C4.20003 13.4169 4.80504 15.0997 5.91034 16.4399L6.14073 16.718L6.48292 16.6025C7.66922 16.2024 8.73542 15.5095 9.5828 14.5879C10.4302 13.6663 11.0314 12.5458 11.3307 11.3302C12.5463 11.0308 13.6666 10.4295 14.5881 9.58217C15.5096 8.73479 16.2025 7.66864 16.6025 6.48239L16.718 6.14021L16.4393 5.90981ZM6.49289 15.48C5.68473 14.3768 5.24872 13.0451 5.24801 11.6776C5.24801 11.199 5.30732 10.735 5.40703 10.2858C6.81189 11.2314 8.49857 11.6665 10.1855 11.5186C9.8975 12.4089 9.4175 13.2251 8.77944 13.9096C8.14138 14.5941 7.36082 15.1302 6.49289 15.48ZM10.4343 10.4348C10.1429 10.4754 9.84651 10.4959 9.54526 10.4962C8.12037 10.4962 6.80673 10.0218 5.74187 9.23036C6.1906 8.14494 6.92471 7.20119 7.86635 6.49919L7.19458 5.69621C6.21833 6.43202 5.4366 7.39517 4.91737 8.50191C4.25136 7.80625 3.75172 6.96865 3.45602 6.05209C3.16031 5.13553 3.07624 4.16386 3.21013 3.21013C3.50483 3.16867 3.8021 3.14815 4.0997 3.14872C7.62651 3.14872 10.4962 6.01845 10.4962 9.54526C10.4962 9.84686 10.4752 10.1434 10.4343 10.4348ZM15.2196 13.645C15.2196 14.2247 14.7497 14.6947 14.17 14.6947C13.5903 14.6947 13.1203 14.2247 13.1203 13.645C13.1203 13.0653 13.5903 12.5954 14.17 12.5954C14.7497 12.5954 15.2196 13.0653 15.2196 13.645ZM1.04965 11.5456C1.62935 11.5456 2.09929 11.0757 2.09929 10.4959C2.09929 9.91624 1.62935 9.4463 1.04965 9.4463C0.469942 9.4463 0 9.91624 0 10.4959C0 11.0757 0.469942 11.5456 1.04965 11.5456ZM30.3866 11.9085V4.81919H32.0147V11.9085H30.3866ZM30.4507 3.60131V2.24242H31.207C31.5788 2.24242 31.8608 2.52445 31.8608 2.89623V3.60131H30.4507ZM21.0082 11.9213C19.3673 11.8701 18.7776 11.1778 18.7391 9.60096V7.2934C18.7391 5.54991 19.3545 4.81919 21.1877 4.81919V4.83201H26.7387C28.5078 4.85765 29.1103 5.58837 29.1103 7.31904L27.4822 7.33186C27.4822 6.54986 27.2643 6.46012 26.6617 6.46012H21.1749C20.5724 6.46012 20.3672 6.53704 20.3672 7.31904V9.44712C20.3672 10.2291 20.5724 10.2804 21.1749 10.2804H27.4822V10.0625C27.4822 9.28046 27.2643 9.19072 26.6617 9.19072H22.6748V7.56262H26.8156C28.5206 7.60107 29.1103 8.3318 29.1103 10.024V13.1264H29.0847C28.277 13.1264 27.5335 12.7033 27.495 11.9085L21.1877 11.9213H21.0082ZM33.2911 6.3832C33.3039 8.02413 33.8551 8.75485 35.4704 8.83177H37.7651V11.9085H39.3933V8.81895H41.1367C42.9187 8.81895 43.5469 8.11386 43.5725 6.46012V4.81919H41.9444V6.3191C41.9444 7.1011 41.7265 7.19084 41.1239 7.19084H35.714C35.1115 7.19084 34.9192 7.13956 34.9192 6.35756V4.84483H33.2911V6.3832ZM44.5462 6.10116C44.5462 5.26788 44.9949 4.81919 45.8282 4.81919H54.8917V6.4473H44.5462V6.10116ZM44.5334 11.9085V7.5498H53.6739V9.1779H46.1615V10.2804H54.8917V11.9085H44.5334ZM55.8588 9.60096C55.8973 11.1778 56.487 11.8701 58.1279 11.9213H60.6278L60.2432 12.6521H60.2304V13.1264L61.1277 13.1136C61.2559 13.1264 61.32 13.152 61.32 13.2802V13.7161C61.32 13.9084 61.2431 13.934 61.0636 13.934H60.2688V14.5494H61.0765L61.1793 14.5497C61.7944 14.5523 62.4624 14.5551 62.4866 13.7417V13.2802C62.4995 12.87 61.8713 12.6905 61.2688 12.6521L61.6662 11.9213L66.23 11.9085V10.2804H58.2946C57.692 10.2804 57.4869 10.2291 57.4869 9.44712V7.30622C57.4869 6.52422 57.692 6.4473 58.2946 6.4473H63.7814C64.384 6.4473 64.6019 6.53704 64.6019 7.31904L66.23 7.30622C66.23 5.57555 65.6275 4.84483 63.8583 4.81919C62.9289 4.81919 62.0059 4.81598 61.0829 4.81278C60.1599 4.80957 59.2368 4.80637 58.3074 4.80637H58.1407C56.4742 4.85765 55.8845 5.54991 55.8588 7.1652V9.60096Z" fill="white"/>
</svg>
